<svg t="1700699249640" class="icon" viewBox="0 0 1024 1024" version="1.1" xmlns="http://www.w3.org/2000/svg" p-id="3679" width="32" height="32"><path d="M620.33 363.07H413.08a17.87 17.87 0 0 1-17.72-20.18l21-161.82a17.87 17.87 0 0 1 17.72-15.57H599.3a17.88 17.88 0 0 1 17.7 15.57l21 161.82a17.87 17.87 0 0 1-17.67 20.18z" fill="#FF8D8D" p-id="3680"></path><path d="M674.12 857.28H359.29a37.79 37.79 0 0 1-37.49-42.54l39.35-310.89a65.83 65.83 0 0 1 65.31-57.56H607a65.84 65.84 0 0 1 65.31 57.56l39.35 310.89a37.79 37.79 0 0 1-37.54 42.54z" fill="#F24A46" p-id="3681"></path><path d="M581.68 820.14H454.5a12.44 12.44 0 0 1-12.37-13.76l6-56.19c5.34-43.25 31.32-70 70-70 38.63 0 63.54 26.7 69.95 70l6 56.19a12.43 12.43 0 0 1-12.4 13.76z" fill="#FF7E7B" p-id="3682"></path><path d="M432.4 363.07h-18.28a17.87 17.87 0 0 1-17.72-20.18l21-161.82a17.87 17.87 0 0 1 17.72-15.57h18.56z" fill="#FF7B7B" p-id="3683"></path><path d="M371.25 856.87h-11.84a37.79 37.79 0 0 1-37.49-42.54l39.35-310.89a65.84 65.84 0 0 1 65.31-57.56h-4.07z" fill="#EA2D2D" p-id="3684"></path><path d="M597.91 632.43H435.5a283.71 283.71 0 0 1-279.37-234.21 48.11 48.11 0 0 1 47.37-56.51h626.41a48.11 48.11 0 0 1 47.37 56.51 283.71 283.71 0 0 1-279.37 234.21z" fill="#FC6257" p-id="3685"></path><path d="M201.65 398.54A48.11 48.11 0 0 1 249 342h-46a48.11 48.11 0 0 0-47.37 56.51A283.71 283.71 0 0 0 435 632.75h46a283.71 283.71 0 0 1-279.35-234.21z" fill="#F94541" p-id="3686"></path><path d="M632.43 591.09a15 15 0 0 1-3.33-29.62c53.73-12.3 96.22-35.77 126.28-69.74 22.38-25.3 29.16-47.37 29.23-47.59a15 15 0 1 1 28.8 8.39c-0.32 1.1-8.13 27.5-34.28 57.61-23.62 27.2-67.65 63.25-143.34 80.57a14.86 14.86 0 0 1-3.36 0.38z" fill="#FFFFFF" p-id="3687"></path><path d="M814.5 401.5m-15.5 0a15.5 15.5 0 1 0 31 0 15.5 15.5 0 1 0-31 0Z" fill="#FFFFFF" p-id="3688"></path></svg>
